<svg id="Layer_1" data-name="Layer 1" xmlns="http://www.w3.org/2000/svg" viewBox="0 0 324 324"><defs><style>.cls-1{fill:#fff;}.cls-2,.cls-3,.cls-7{fill:#f5a0c5;}.cls-2,.cls-3{stroke:#fff;stroke-miterlimit:10;}.cls-3{font-size:68px;font-family:BalooTammudu-Regular, Baloo Tammudu;}.cls-4{letter-spacing:0.01em;}.cls-5{letter-spacing:-0.01em;}.cls-6{letter-spacing:0em;}</style></defs><rect class="cls-1" width="324" height="324"/><rect class="cls-2" x="52.47" y="74.43" width="220.04" height="121.71"/><text class="cls-3" transform="translate(41.44 145.99)">P<tspan class="cls-4" x="39.51" y="0">E</tspan><tspan class="cls-5" x="77.65" y="0">A</tspan><tspan class="cls-6" x="119.61" y="0">CHY</tspan></text><text class="cls-3" transform="translate(41.93 82.94)">P<tspan class="cls-4" x="39.51" y="0">E</tspan><tspan class="cls-5" x="77.65" y="0">A</tspan><tspan class="cls-6" x="119.61" y="0">CHY</tspan></text><text class="cls-3" transform="translate(45.09 213.7)">P<tspan class="cls-4" x="39.51" y="0">E</tspan><tspan class="cls-5" x="77.65" y="0">A</tspan><tspan class="cls-6" x="119.61" y="0">CHY</tspan></text><path class="cls-7" d="M190,273.07c-2.88,13.7-23.23,22.35-30,26.48-1.78,1.08-4.15-.67-6.2-1.58-11.69-5.15-27.22-20.7-24.32-36.55,2.63-14.46,13.86-22.17,22.67-15.18,2.27,1.8,1.87,3,5.29,1.23C177,237.42,193.71,255.45,190,273.07Z" transform="translate(0 0)"/><path class="cls-1" d="M175.89,259.11l3.38-1.92s3,4.24,2.37,6.24S182.76,262.86,175.89,259.11Z" transform="translate(0 0)"/><path class="cls-2" d="M154,250c-2.23-2.65-4.44-7.45-6.59-10.51-2.91-4.12-6.22-6.19-12.41-4.6-3,.79-2.73,5.7-.12,8.81s8.16,5.73,9.75,6C147.82,250.38,154,250,154,250Z" transform="translate(0 0)"/><path class="cls-7" d="M155.32,248.84l-2.77-7.31s2.15-1.29,2.2-.57,1.89,7.79,1.89,7.79Z" transform="translate(0 0)"/><path class="cls-7" d="M149,247.62a33.4,33.4,0,0,0-5.16-5.88,13,13,0,0,0-6.37-3.2" transform="translate(0 0)"/><path class="cls-1" d="M149,247.64c-.79-1-1.6-1.94-2.44-2.86a36.53,36.53,0,0,0-2.63-2.65,17,17,0,0,0-3-2.18,11.24,11.24,0,0,0-3.44-1.36v-.09a9.5,9.5,0,0,1,3.62,1.09,14.77,14.77,0,0,1,3.14,2.17,23.39,23.39,0,0,1,2.62,2.74,22.91,22.91,0,0,1,2.16,3.1Z" transform="translate(0 0)"/><path class="cls-7" d="M156.67,299.77c-5.62-4.22-8.86-11.1-8.4-16.79a13.88,13.88,0,0,1,2.54-6.82" transform="translate(0 0)"/><path class="cls-1" d="M156.66,299.78c-.44.12-.62-.12-.86-.28a8.17,8.17,0,0,1-.68-.52,15.21,15.21,0,0,1-1.28-1.13,20.67,20.67,0,0,1-5.29-8.73,15.58,15.58,0,0,1-.62-3.39,13.14,13.14,0,0,1,.13-3.43,14.15,14.15,0,0,1,2.75-6.14,14,14,0,0,0-2.2,6.21,16.29,16.29,0,0,0,.87,6.46,23,23,0,0,0,2.94,5.84,24,24,0,0,0,2.06,2.56c.36.41.74.81,1.14,1.19.19.2.4.38.6.56s.46.31.46.77Z" transform="translate(0 0)"/></svg>